# xmcd
#
# Track frame offsets:
#	150
#	20532
#	23285
#	42642
#	64060
#	85700
#	104437
#	122287
#	141720
#	168845
#	196387
#	209587
#	220732
#	246447
#	266387
#
# Disc length: 3558 seconds
#
# Revision: 3
# Processed by: cddbd v1.5.2PL0 Copyright (c) Steve Scherf et al.
# Submitted via: audiograbber 1.83.01
#
DISCID=d40de40f
DTITLE=Ani Difranco - Not A Pretty Girl
DYEAR=1994
DGENRE=Folk
TTITLE0=Worthy
TTITLE1=Tiptoe
TTITLE2=Cradle and All
TTITLE3=Shy
TTITLE4=Sorry I Am
TTITLE5=Light of Some Kind
TTITLE6=Not A Pretty Girl
TTITLE7=The Million You Never Made
TTITLE8=Hour Follows Hour
TTITLE9=32 Flavors
TTITLE10=Asking Too Much
TTITLE11=This Bouquet
TTITLE12=Crime for Crime
TTITLE13=Coming Up
TTITLE14=Outro
EXTD=
EXTT0=
EXTT1=
EXTT2=
EXTT3=
EXTT4=
EXTT5=
EXTT6=
EXTT7=
EXTT8=
EXTT9=
EXTT10=
EXTT11=
EXTT12=
EXTT13=
EXTT14=
PLAYORDER=
